<?xml version="1.0" standalone="no"?>
<!DOCTYPE svg PUBLIC "-//W3C//DTD SVG 20010904//EN"
 "http://www.w3.org/TR/2001/REC-SVG-20010904/DTD/svg10.dtd">
<svg version="1.0" xmlns="http://www.w3.org/2000/svg"
 width="512.000000pt" height="512.000000pt" viewBox="0 0 512.000000 512.000000"
 preserveAspectRatio="xMidYMid meet">
<metadata>
Created by potrace 1.11, written by Peter Selinger 2001-2013
</metadata>
<g transform="translate(0.000000,512.000000) scale(0.100000,-0.100000)"
fill="#000000" stroke="none">
<path d="M1660 4693 c-98 -19 -202 -76 -275 -150 -204 -206 -213 -535 -20
-747 19 -21 35 -42 35 -46 0 -5 -20 -46 -44 -92 -104 -199 -162 -309 -206
-393 -26 -49 -72 -136 -101 -193 -53 -103 -53 -103 -83 -95 -37 9 -204 11
-261 2 -56 -8 -171 -56 -230 -95 -297 -196 -390 -568 -223 -886 43 -80 142
-183 233 -240 46 -28 154 -73 205 -85 19 -4 87 -8 150 -8 137 0 223 23 335 91
40 24 73 38 76 32 3 -5 8 -8 10 -6 3 1 27 -13 54 -33 52 -38 512 -377 555
-410 14 -10 40 -29 58 -42 17 -13 30 -27 27 -30 -3 -4 -2 -5 1 -2 9 6 94 -54
94 -66 0 -6 4 -7 10 -4 6 3 10 2 10 -4 0 -5 8 -12 18 -16 9 -3 32 -18 50 -33
l32 -27 -13 -65 c-41 -192 47 -375 219 -460 77 -38 90 -41 180 -41 154 0 298
90 365 227 l22 46 306 -5 c168 -3 374 -6 457 -6 l151 -1 41 -82 c44 -89 112
-168 183 -214 24 -16 46 -31 49 -35 3 -3 43 -18 90 -33 256 -84 526 20 657
253 158 281 51 629 -237 769 -80 39 -105 47 -189 58 -19 2 -36 6 -38 8 -5 4
-8 23 -23 121 -7 44 -13 87 -15 95 -1 8 -6 42 -10 75 -7 60 -10 79 -20 125 -3
14 -8 48 -10 75 -3 28 -7 57 -10 65 -2 8 -7 38 -10 65 -3 28 -10 74 -16 104
-13 75 -12 79 14 87 87 27 220 114 294 192 49 52 116 156 146 227 40 94 53
162 56 276 6 266 -118 498 -347 651 -63 42 -183 92 -252 104 -54 10 -263 11
-305 2 -95 -20 -216 -76 -298 -136 -53 -40 -177 -167 -177 -183 0 -4 -37 10
-82 33 -46 22 -132 64 -193 93 -214 102 -510 245 -527 255 -36 20 -56 30 -190
94 l-136 66 5 95 c6 99 -7 193 -32 242 -8 15 -15 32 -15 36 0 13 -66 110 -97
143 -120 127 -327 192 -503 157z m243 -221 c173 -77 249 -278 172 -451 -58
-129 -184 -204 -329 -196 -122 7 -232 82 -285 195 -22 47 -26 68 -26 145 1 78
5 97 28 142 30 58 93 125 141 150 89 46 214 53 299 15z m497 -730 c91 -44 221
-107 290 -140 69 -33 224 -108 345 -167 121 -59 238 -115 261 -126 l41 -20
-14 -52 c-16 -56 -22 -248 -11 -312 28 -158 97 -285 220 -407 130 -128 287
-199 473 -214 44 -3 81 -7 81 -8 1 0 5 -23 8 -51 4 -27 11 -75 16 -105 5 -30
16 -104 25 -165 24 -167 25 -176 30 -199 2 -12 6 -39 9 -61 3 -22 10 -73 16
-112 6 -40 9 -77 6 -82 -4 -5 0 -11 6 -14 7 -2 -16 -18 -51 -36 -35 -17 -85
-49 -111 -71 l-47 -39 -157 120 c-91 70 -153 125 -150 131 4 7 2 8 -5 4 -9 -6
-74 35 -101 64 -3 3 -32 25 -65 49 -33 25 -62 47 -65 51 -3 3 -21 17 -40 30
-19 14 -42 30 -50 37 -8 7 -107 83 -220 170 -113 86 -210 162 -216 168 -6 5
-22 17 -34 25 -13 8 -38 28 -56 43 -27 23 -32 33 -24 46 16 31 19 134 6 191
-18 78 -41 116 -105 181 -71 70 -144 101 -251 104 l-75 2 -72 154 c-39 85 -90
192 -112 239 -22 47 -56 121 -76 165 -21 44 -51 109 -67 145 -63 134 -78 169
-78 174 0 3 23 17 51 32 28 14 79 53 113 87 40 41 66 60 76 56 8 -4 89 -43
180 -87z m-674 -123 l41 -1 93 -202 c103 -221 154 -330 225 -481 26 -55 63
-135 82 -178 l34 -78 -30 -35 c-27 -30 -55 -82 -74 -137 -5 -13 -16 -17 -39
-16 -27 1 -367 -8 -533 -15 l-40 -1 -22 63 c-30 84 -67 152 -119 213 -43 49
-110 110 -142 128 -14 8 -8 26 47 133 35 67 76 146 91 173 15 28 45 84 66 125
21 41 43 78 47 81 5 3 8 9 8 13 -1 5 26 61 107 217 l13 27 52 -14 c29 -8 70
-15 93 -15z m2442 -23 c143 -27 300 -143 369 -273 171 -322 3 -709 -346 -798
-191 -50 -382 5 -525 149 -236 238 -202 633 72 829 122 87 278 121 430 93z
m-3217 -826 c123 -33 237 -127 294 -243 34 -71 56 -166 49 -217 -1 -14 -5 -45
-8 -70 -9 -70 -68 -179 -132 -243 -31 -31 -62 -57 -67 -57 -6 0 -18 -6 -26
-13 -18 -15 -94 -45 -138 -54 -60 -13 -178 -5 -235 16 -313 110 -416 497 -198
741 12 14 27 24 32 22 5 -1 7 2 4 7 -5 8 48 49 101 77 27 15 83 33 120 40 15
3 29 6 30 8 6 6 136 -4 174 -14z m1579 -215 c80 -41 113 -152 68 -229 -60
-103 -211 -111 -280 -14 -32 45 -33 143 -2 185 51 69 144 94 214 58z m-407
-314 c43 -91 166 -184 260 -197 18 -3 37 -7 44 -9 27 -9 142 16 197 44 l60 29
190 -145 c105 -80 196 -151 201 -157 6 -6 29 -24 53 -40 24 -16 47 -36 52 -45
5 -9 10 -12 10 -7 0 4 21 -9 48 -30 59 -48 52 -43 149 -117 44 -34 174 -133
286 -220 l206 -157 -14 -48 c-13 -42 -22 -88 -24 -118 -1 -8 -62 -10 -208 -7
-115 2 -310 5 -434 6 -124 2 -231 7 -237 11 -7 4 -12 15 -12 25 0 10 -13 44
-29 76 -17 33 -28 63 -25 67 3 5 2 7 -3 6 -5 -2 -29 17 -53 40 -136 132 -345
155 -502 56 -22 -14 -44 -21 -51 -17 -11 6 -419 307 -442 326 -39 31 -442 327
-448 329 -4 2 10 41 31 88 36 76 56 142 65 207 2 12 6 25 9 29 4 3 89 8 189
10 101 3 184 6 185 7 1 1 53 2 114 2 l112 0 21 -44z m2339 -925 c105 -17 219
-110 259 -213 35 -90 32 -193 -9 -275 -37 -73 -51 -91 -109 -136 -88 -69 -210
-88 -320 -51 -77 26 -176 106 -185 150 -2 8 -9 18 -15 24 -20 16 -41 115 -37
175 9 163 135 306 287 326 23 4 43 7 45 9 3 3 31 0 84 -9z m-1799 -188 c69
-49 91 -91 91 -175 -1 -74 -30 -127 -95 -170 -93 -61 -229 -24 -282 78 -55
106 -17 225 90 280 51 26 149 20 196 -13z"/>
</g>
</svg>
